<svg width="16" height="16" viewBox="0 0 16 16" fill="none" xmlns="http://www.w3.org/2000/svg">
<g clip-path="url(#clip0_72_7624)">
<path d="M16 8.04888C15.9998 6.52008 15.5616 5.02334 14.7372 3.73586C13.9128 2.44838 12.7368 1.42408 11.3483 0.784217C9.95985 0.144355 8.41713 -0.0842694 6.90277 0.125411C5.38842 0.335091 3.96585 0.974295 2.8035 1.96735C1.64114 2.9604 0.787659 4.26572 0.344106 5.72876C-0.0994477 7.1918 -0.114502 8.7513 0.300725 10.2226C0.715953 11.694 1.54407 13.0155 2.68704 14.0308C3.83002 15.0461 5.23998 15.7127 6.75 15.9515V10.3615H4.71867V8.04822H6.75V6.28688C6.75 4.28222 7.94467 3.17422 9.772 3.17422C10.372 3.1835 10.9705 3.23676 11.5627 3.33355V5.29955H10.5533C10.3814 5.27678 10.2066 5.29295 10.0418 5.34686C9.87702 5.40076 9.72645 5.49104 9.60124 5.61099C9.47604 5.73095 9.3794 5.87752 9.31849 6.03987C9.25758 6.20221 9.23394 6.37617 9.24933 6.54888V8.04888H11.4667L11.112 10.3622H9.24533V15.9522C11.1281 15.6555 12.8431 14.6963 14.0815 13.2474C15.3199 11.7984 16.0002 9.95492 16 8.04888Z" fill="white"/>
</g>
<defs>
<clipPath id="clip0_72_7624">
<rect width="16" height="16" fill="white"/>
</clipPath>
</defs>
</svg>
