<svg width="16" height="16" viewBox="0 0 16 16" fill="none" xmlns="http://www.w3.org/2000/svg">
<g clip-path="url(#clip0_72_7633)">
<path d="M8 0C5.82667 0 5.55533 0.01 4.702 0.048C4.03835 0.0618594 3.38179 0.187626 2.76 0.42C2.22601 0.620688 1.74229 0.935581 1.34267 1.34267C0.935229 1.74201 0.620282 2.2258 0.42 2.76C0.187304 3.3817 0.0615275 4.03831 0.048 4.702C0.008 5.55533 0 5.82667 0 8C0 10.1733 0.01 10.4447 0.048 11.298C0.061923 11.9616 0.187687 12.6182 0.42 13.24C0.620861 13.7739 0.935731 14.2576 1.34267 14.6573C1.74218 15.0646 2.22593 15.3795 2.76 15.58C3.38183 15.8122 4.03836 15.938 4.702 15.952C5.55533 15.992 5.82667 16 8 16C10.1733 16 10.4447 15.99 11.298 15.952C11.9616 15.9377 12.6181 15.812 13.24 15.58C13.7716 15.3746 14.2543 15.0603 14.6573 14.6573C15.0603 14.2543 15.3746 13.7716 15.58 13.24C15.8123 12.6182 15.9381 11.9616 15.952 11.298C15.992 10.4447 16 10.1733 16 8C16 5.82667 15.99 5.55533 15.952 4.702C15.9378 4.03838 15.8121 3.38188 15.58 2.76C15.379 2.22615 15.0642 1.74249 14.6573 1.34267C14.2581 0.935094 13.7743 0.620126 13.24 0.42C12.6183 0.187366 11.9617 0.0615915 11.298 0.048C10.4447 0.008 10.1733 0 8 0ZM8 1.44C10.1333 1.44 10.39 1.45067 11.2333 1.48733C11.7405 1.49345 12.2427 1.58704 12.718 1.764C13.0636 1.89611 13.3775 2.09957 13.6391 2.36113C13.9008 2.62269 14.1044 2.93647 14.2367 3.282C14.413 3.75741 14.5061 4.25964 14.512 4.76667C14.55 5.61067 14.5587 5.864 14.5587 8C14.5587 10.136 14.5487 10.39 14.5093 11.2333C14.5001 11.7405 14.4052 12.2425 14.2287 12.718C14.0983 13.0652 13.8935 13.3797 13.6287 13.6393C13.3704 13.9052 13.0561 14.1101 12.7087 14.2393C12.2314 14.4156 11.7274 14.5088 11.2187 14.5147C10.3693 14.5527 10.1193 14.5613 7.97933 14.5613C5.83933 14.5613 5.58867 14.5513 4.74 14.512C4.23088 14.5028 3.72693 14.4079 3.24933 14.2313C2.90187 14.1026 2.58772 13.8976 2.33 13.6313C2.06239 13.3745 1.85714 13.0598 1.73 12.7113C1.55381 12.2339 1.45916 11.7302 1.45 11.2213C1.42 10.3813 1.40933 10.122 1.40933 7.992C1.40933 5.862 1.42 5.60133 1.45 4.75133C1.45995 4.24183 1.55574 3.73765 1.73333 3.26C1.85848 2.91036 2.064 2.59501 2.33333 2.33933C2.5885 2.07002 2.90342 1.86449 3.25267 1.73933C3.72664 1.56231 4.22744 1.46784 4.73333 1.46C5.58333 1.43 5.83333 1.42 7.97267 1.42L8 1.44ZM8 3.892C7.18751 3.892 6.39327 4.13293 5.71772 4.58432C5.04216 5.03572 4.51563 5.6773 4.2047 6.42794C3.89378 7.17858 3.81243 8.00456 3.97093 8.80143C4.12944 9.59831 4.52069 10.3303 5.09521 10.9048C5.66972 11.4793 6.4017 11.8706 7.19857 12.0291C7.99544 12.1876 8.82142 12.1062 9.57206 11.7953C10.3227 11.4844 10.9643 10.9578 11.4157 10.2823C11.8671 9.60673 12.108 8.81249 12.108 8C12.108 6.91049 11.6752 5.8656 10.9048 5.09521C10.1344 4.32481 9.08951 3.892 8 3.892ZM8 10.6667C7.47258 10.6667 6.95701 10.5103 6.51848 10.2173C6.07995 9.92424 5.73815 9.50776 5.53632 9.02049C5.33449 8.53322 5.28168 7.99704 5.38457 7.47976C5.48747 6.96248 5.74144 6.48732 6.11438 6.11438C6.48732 5.74144 6.96248 5.48747 7.47976 5.38457C7.99704 5.28168 8.53322 5.33449 9.02049 5.53632C9.50776 5.73815 9.92424 6.07995 10.2173 6.51848C10.5103 6.95701 10.6667 7.47258 10.6667 8C10.6667 8.70724 10.3857 9.38552 9.88562 9.88562C9.38552 10.3857 8.70724 10.6667 8 10.6667ZM13.2307 3.73333C13.2308 3.92323 13.1746 4.1089 13.0692 4.26686C12.9638 4.42482 12.8139 4.54797 12.6385 4.62073C12.4631 4.6935 12.2701 4.7126 12.0838 4.67564C11.8975 4.63867 11.7264 4.54729 11.5921 4.41306C11.4578 4.27883 11.3663 4.10777 11.3292 3.92153C11.2921 3.73529 11.311 3.54223 11.3837 3.36678C11.4563 3.19132 11.5794 3.04135 11.7373 2.93584C11.8951 2.83032 12.0808 2.774 12.2707 2.774C12.5251 2.77418 12.7691 2.87528 12.9491 3.05514C13.129 3.23499 13.2303 3.4789 13.2307 3.73333Z" fill="white"/>
</g>
<defs>
<clipPath id="clip0_72_7633">
<rect width="16" height="16" fill="white"/>
</clipPath>
</defs>
</svg>
