<svg width="16" height="16" viewBox="0 0 16 16" fill="none" xmlns="http://www.w3.org/2000/svg">
<g clip-path="url(#clip0_72_7627)">
<path d="M13.6313 13.6348H11.262V9.92209C11.262 9.03676 11.244 7.89743 10.0273 7.89743C8.792 7.89743 8.60333 8.86076 8.60333 9.85676V13.6348H6.234V6.00009H8.51V7.04076H8.54067C8.76872 6.65132 9.09806 6.33098 9.49367 6.11381C9.88927 5.89664 10.3363 5.79076 10.7873 5.80743C13.1873 5.80743 13.632 7.38743 13.632 9.44409L13.6313 13.6348ZM3.558 4.95543C3.28585 4.95556 3.01978 4.87499 2.79342 4.7239C2.56707 4.57281 2.3906 4.358 2.28633 4.10662C2.18206 3.85523 2.15468 3.57858 2.20764 3.31164C2.26061 3.04469 2.39154 2.79945 2.58388 2.60692C2.77623 2.41439 3.02134 2.28322 3.28824 2.23C3.55513 2.17677 3.83181 2.20389 4.08329 2.30791C4.33477 2.41194 4.54976 2.5882 4.70107 2.81441C4.85237 3.04062 4.9332 3.30661 4.93333 3.57876C4.9336 3.75951 4.89821 3.93853 4.8292 4.10559C4.7602 4.27265 4.65892 4.42446 4.53118 4.55233C4.40343 4.6802 4.25172 4.78162 4.08473 4.85079C3.91774 4.91996 3.73875 4.95552 3.558 4.95543ZM4.746 13.6348H2.37V6.00009H4.746V13.6348ZM14.8167 9.37256e-05H1.18067C1.02745 -0.00175585 0.875379 0.0265928 0.733124 0.0835208C0.590869 0.140449 0.461221 0.224841 0.351584 0.331878C0.241947 0.438915 0.154468 0.566501 0.0941425 0.707349C0.0338173 0.848197 0.00182751 0.999548 0 1.15276L0 14.8474C0.00174015 15.0007 0.0336706 15.1521 0.0939652 15.2929C0.15426 15.4338 0.241736 15.5615 0.351391 15.6685C0.461046 15.7756 0.590729 15.86 0.733023 15.9168C0.875317 15.9737 1.02743 16.002 1.18067 16.0001H14.8147C15.1246 16.004 15.4234 15.8849 15.6456 15.6688C15.8678 15.4527 15.9953 15.1573 16 14.8474V1.15276C15.9953 0.842854 15.8678 0.547476 15.6456 0.331396C15.4234 0.115317 15.1246 -0.00382564 14.8147 9.37256e-05H14.8167Z" fill="white"/>
</g>
<defs>
<clipPath id="clip0_72_7627">
<rect width="16" height="16" fill="white"/>
</clipPath>
</defs>
</svg>
