<svg width="16" height="16" viewBox="0 0 16 16" fill="none" xmlns="http://www.w3.org/2000/svg">
<g clip-path="url(#clip0_72_7636)">
<path d="M8.35001 0.0133333C9.22334 0 10.09 0.00666667 10.9567 0C11.01 1.02 11.3767 2.06 12.1233 2.78C12.87 3.52 13.9233 3.86 14.95 3.97333V6.66C13.99 6.62667 13.0233 6.42667 12.15 6.01333C11.77 5.84 11.4167 5.62 11.07 5.39333C11.0633 7.34 11.0767 9.28667 11.0567 11.2267C11.0033 12.16 10.6967 13.0867 10.1567 13.8533C9.28334 15.1333 7.77001 15.9667 6.21668 15.9933C5.26334 16.0467 4.31001 15.7867 3.49668 15.3067C2.15001 14.5133 1.20334 13.06 1.06334 11.5C1.05001 11.1667 1.04334 10.8333 1.05668 10.5067C1.17668 9.24 1.80334 8.02667 2.77668 7.2C3.88334 6.24 5.43001 5.78 6.87668 6.05333C6.89001 7.04 6.85001 8.02667 6.85001 9.01333C6.19001 8.8 5.41668 8.86 4.83668 9.26C4.41668 9.53333 4.09668 9.95333 3.93001 10.4267C3.79001 10.7667 3.83001 11.14 3.83668 11.5C3.99668 12.5933 5.05001 13.5133 6.17001 13.4133C6.91668 13.4067 7.63001 12.9733 8.01668 12.34C8.14334 12.12 8.28334 11.8933 8.29001 11.6333C8.35668 10.44 8.33001 9.25333 8.33668 8.06C8.34334 5.37333 8.33001 2.69333 8.35001 0.0133333Z" fill="white"/>
</g>
<defs>
<clipPath id="clip0_72_7636">
<rect width="16" height="16" fill="white"/>
</clipPath>
</defs>
</svg>
