<svg width="16" height="16" viewBox="0 0 16 16" fill="none" xmlns="http://www.w3.org/2000/svg">
<g clip-path="url(#clip0_72_7630)">
<path d="M15.6667 4.12403C15.5764 3.7833 15.398 3.47233 15.1494 3.22238C14.9009 2.97242 14.5909 2.79227 14.2507 2.70003C13.0033 2.3667 8.00001 2.3667 8.00001 2.3667C8.00001 2.3667 3.00001 2.3667 1.74868 2.70003C1.40877 2.79274 1.09915 2.97306 0.850773 3.22295C0.6024 3.47284 0.423978 3.78356 0.333345 4.12403C0.102922 5.40299 -0.00866481 6.70052 1.17946e-05 8.00003C-0.00866481 9.29955 0.102922 10.5971 0.333345 11.876C0.423666 12.2168 0.602064 12.5277 0.850617 12.7777C1.09917 13.0276 1.40913 13.2078 1.74935 13.3C2.99668 13.6334 8.00001 13.6334 8.00001 13.6334C8.00001 13.6334 13 13.6334 14.2513 13.3C14.5914 13.2077 14.9013 13.0275 15.1497 12.7775C15.3981 12.5276 15.5764 12.2167 15.6667 11.876C15.8969 10.597 16.0084 9.29954 16 8.00003C16.0087 6.70052 15.8971 5.40299 15.6667 4.12403ZM6.36335 10.3787V5.62137L10.5453 8.00003L6.36335 10.3787Z" fill="white"/>
</g>
<defs>
<clipPath id="clip0_72_7630">
<rect width="16" height="16" fill="white"/>
</clipPath>
</defs>
</svg>
