<?xml version="1.0" encoding="utf-8"?>
<!-- Generator: Adobe Illustrator 26.0.1, SVG Export Plug-In . SVG Version: 6.00 Build 0)  -->
<svg version="1.1" id="Calque_1" xmlns="http://www.w3.org/2000/svg" xmlns:xlink="http://www.w3.org/1999/xlink" x="0px" y="0px"
	 viewBox="0 0 505.2 347.28" style="enable-background:new 0 0 505.2 347.28;" xml:space="preserve">
<style type="text/css">
	.st0{fill:#151A21;}
</style>
<g>
	<path class="st0" d="M303.17,84.53c-13.8,0-24.98,11.18-24.98,24.98v75.37c0,12.99-10.57,23.56-23.56,23.56
		c-12.99,0-23.56-10.57-23.56-23.56v-75.37c0-13.8-11.18-24.98-24.98-24.98c-13.8,0-24.98,11.18-24.98,24.98v75.37
		c0,40.54,32.98,73.52,73.52,73.52s73.52-32.98,73.52-73.52v-75.37C328.15,95.71,316.97,84.53,303.17,84.53"/>
	<path class="st0" d="M143.92,84.53c-13.8,0-24.98,11.18-24.98,24.98v14.9v60.46c0,12.99-10.57,23.56-23.56,23.56
		c-12.99,0-23.56-10.57-23.56-23.56v-75.37c0-13.8-11.18-24.98-24.98-24.98c-13.8,0-24.98,11.18-24.98,24.98v75.37
		c0,40.54,32.98,73.52,73.52,73.52c8.24,0,16.16-1.38,23.56-3.9v49.6c0,13.79,11.18,24.98,24.98,24.98
		c13.8,0,24.98-11.18,24.98-24.98V184.87v-60.46v-14.9C168.9,95.71,157.72,84.53,143.92,84.53"/>
	<path class="st0" d="M413.88,84.53c-8.24,0-16.16,1.38-23.56,3.9v-49.6c0-13.8-11.18-24.98-24.98-24.98
		c-13.8,0-24.98,11.18-24.98,24.98v119.22v60.46v14.9c0,13.79,11.18,24.98,24.98,24.98c13.79,0,24.98-11.18,24.98-24.98v-14.9
		v-60.46c0-12.99,10.57-23.56,23.56-23.56c12.99,0,23.56,10.57,23.56,23.56v75.37c0,13.79,11.18,24.98,24.98,24.98
		c13.79,0,24.98-11.18,24.98-24.98v-75.37C487.4,117.51,454.42,84.53,413.88,84.53"/>
</g>
</svg>
