<svg xmlns="http://www.w3.org/2000/svg" width="726" height="726" viewBox="0 0 726 726" fill="none"><circle cx="363" cy="363" r="363" fill="#FEF4F7"></circle><ellipse cx="229" cy="690.5" rx="168" ry="5.5" fill="#95D1EB"></ellipse><path fill-rule="evenodd" clip-rule="evenodd" d="M320.833 169.505C326.333 172.68 333.367 170.796 336.542 165.295L348.589 144.429L365.751 114.704V114.704C360.279 111.545 353.282 113.42 350.122 118.892L338.681 138.708V138.708C336.857 137.655 336.232 135.323 337.285 133.499L352.54 107.077V107.077C347.068 103.917 340.071 105.792 336.911 111.264L326.369 129.524C325.801 130.508 324.816 131.181 323.693 131.352L314.84 132.7C311.387 133.226 308.359 135.293 306.612 138.319L302.414 145.591C299.238 151.092 301.123 158.125 306.623 161.301L320.833 169.505Z" fill="#FA5B35"></path><path fill-rule="evenodd" clip-rule="evenodd" d="M320.833 169.505C326.333 172.68 333.367 170.796 336.542 165.295L348.589 144.429L365.751 114.704V114.704C360.279 111.545 353.282 113.42 350.122 118.892L338.681 138.708V138.708C336.857 137.655 336.232 135.323 337.285 133.499L352.54 107.077V107.077C347.068 103.917 340.071 105.792 336.911 111.264L326.369 129.524C325.801 130.508 324.816 131.181 323.693 131.352L314.84 132.7C311.387 133.226 308.359 135.293 306.612 138.319L302.414 145.591C299.238 151.092 301.123 158.125 306.623 161.301L320.833 169.505Z" fill="url(#paint0_linear_201_15272)"></path><path fill-rule="evenodd" clip-rule="evenodd" d="M437.715 240.124C443.216 243.299 450.249 241.415 453.425 235.914L465.472 215.048L482.634 185.323V185.323C477.161 182.164 470.164 184.039 467.005 189.511L455.564 209.327V209.327C453.74 208.274 453.115 205.942 454.168 204.118L469.423 177.696V177.696C463.95 174.536 456.953 176.411 453.794 181.883L443.252 200.143C442.683 201.127 441.699 201.799 440.575 201.971L431.723 203.319C428.269 203.845 425.242 205.912 423.495 208.938L419.296 216.21C416.121 221.711 418.005 228.744 423.506 231.919L437.715 240.124Z" fill="#FA5B35"></path><path fill-rule="evenodd" clip-rule="evenodd" d="M437.715 240.124C443.216 243.299 450.249 241.415 453.425 235.914L465.472 215.048L482.634 185.323V185.323C477.161 182.164 470.164 184.039 467.005 189.511L455.564 209.327V209.327C453.74 208.274 453.115 205.942 454.168 204.118L469.423 177.696V177.696C463.95 174.536 456.953 176.411 453.794 181.883L443.252 200.143C442.683 201.127 441.699 201.799 440.575 201.971L431.723 203.319C428.269 203.845 425.242 205.912 423.495 208.938L419.296 216.21C416.121 221.711 418.005 228.744 423.506 231.919L437.715 240.124Z" fill="url(#paint1_linear_201_15272)"></path><path fill-rule="evenodd" clip-rule="evenodd" d="M337.622 172.974C340.152 182.392 338.729 191.743 333.367 201.03L286.069 282.952C281.624 290.651 280.552 298.786 282.851 307.367C285.148 315.951 290.147 322.458 297.844 326.903C305.54 331.346 313.679 332.423 322.26 330.119C330.838 327.819 337.349 322.824 341.795 315.125L389.092 233.203C394.454 223.916 401.842 218.009 411.263 215.491C420.676 212.964 430.032 214.382 439.32 219.744C448.608 225.106 454.512 232.499 457.034 241.916C459.561 251.333 458.142 260.681 452.784 269.962L405.39 352.05C390.762 377.387 372.61 430.353 372.593 512.295L165.573 512.339C165.609 340.703 207.665 271.676 222.293 246.339L269.687 164.251C275.045 154.97 282.431 149.067 291.852 146.549C301.264 144.022 310.621 145.44 319.909 150.802C329.196 156.164 335.102 163.558 337.622 172.974Z" fill="#FA5528"></path><path fill-rule="evenodd" clip-rule="evenodd" d="M337.622 172.974C340.152 182.392 338.729 191.743 333.367 201.03L286.069 282.952C281.624 290.651 280.552 298.786 282.851 307.367C285.148 315.951 290.147 322.458 297.844 326.903C305.54 331.346 313.679 332.423 322.26 330.119C330.838 327.819 337.349 322.824 341.795 315.125L389.092 233.203C394.454 223.916 401.842 218.009 411.263 215.491C420.676 212.964 430.032 214.382 439.32 219.744C448.608 225.106 454.512 232.499 457.034 241.916C459.561 251.333 458.142 260.681 452.784 269.962L405.39 352.05C390.762 377.387 372.61 430.353 372.593 512.295L165.573 512.339C165.609 340.703 207.665 271.676 222.293 246.339L269.687 164.251C275.045 154.97 282.431 149.067 291.852 146.549C301.264 144.022 310.621 145.44 319.909 150.802C329.196 156.164 335.102 163.558 337.622 172.974Z" fill="url(#paint2_linear_201_15272)"></path><circle cx="315.246" cy="296.639" r="22.8822" fill="#FA5B35"></circle><path fill-rule="evenodd" clip-rule="evenodd" d="M282.254 274.652C279.822 273.248 276.712 274.081 275.308 276.513L333.657 310.201L336.199 305.797L332.346 303.572C330.826 302.694 330.305 300.751 331.183 299.231C332.061 297.711 334.004 297.19 335.524 298.067L339.197 300.188C342.372 292.046 339.217 282.585 331.416 278.081L326.087 275.005C315.751 269.037 302.534 272.578 296.566 282.915L282.254 274.652Z" fill="#151A21"></path><path fill-rule="evenodd" clip-rule="evenodd" d="M282.254 274.652C279.822 273.248 276.712 274.081 275.308 276.513L333.657 310.201L336.199 305.797L332.346 303.572C330.826 302.694 330.305 300.751 331.183 299.231C332.061 297.711 334.004 297.19 335.524 298.067L339.197 300.188C342.372 292.046 339.217 282.585 331.416 278.081L326.087 275.005C315.751 269.037 302.534 272.578 296.566 282.915L282.254 274.652Z" fill="url(#paint3_linear_201_15272)"></path><mask id="mask0_201_15272" style="mask-type:luminance" maskUnits="userSpaceOnUse" x="275" y="272" width="66" height="39"><path fill-rule="evenodd" clip-rule="evenodd" d="M282.254 274.652C279.822 273.248 276.712 274.081 275.308 276.513L333.657 310.201L336.199 305.797L332.346 303.572C330.826 302.694 330.305 300.751 331.183 299.231C332.061 297.711 334.004 297.19 335.524 298.067L339.197 300.188C342.372 292.046 339.217 282.585 331.416 278.081L326.087 275.005C315.751 269.037 302.534 272.578 296.566 282.915L282.254 274.652Z" fill="white"></path></mask><g mask="url(#mask0_201_15272)"><path fill-rule="evenodd" clip-rule="evenodd" d="M310.056 270.182C307.326 270.919 306.143 272.969 306.573 276.12L306.591 276.259C306.897 278.78 306.032 280.224 303.93 280.792L303.925 280.793C301.199 281.532 300.018 283.58 300.447 286.73L300.465 286.869C300.772 289.389 299.906 290.834 297.805 291.401C297.499 291.484 297.317 291.799 297.399 292.105C297.48 292.411 297.794 292.592 298.099 292.509C300.829 291.772 302.012 289.723 301.582 286.571L301.564 286.432C301.258 283.912 302.123 282.467 304.225 281.9L304.23 281.898C306.956 281.16 308.137 279.111 307.708 275.961L307.69 275.823C307.383 273.305 308.247 271.861 310.343 271.292L310.35 271.29C313.08 270.553 314.263 268.504 313.833 265.352L313.815 265.213C313.509 262.692 314.374 261.248 316.476 260.68C316.781 260.598 316.963 260.283 316.882 259.977C316.801 259.671 316.487 259.49 316.181 259.573C313.452 260.31 312.269 262.359 312.698 265.511L312.716 265.649C313.023 268.167 312.159 269.611 310.063 270.18L310.056 270.182ZM312.738 285.877C310.008 286.614 308.825 288.663 309.255 291.815L309.273 291.953C309.579 294.474 308.714 295.919 306.612 296.486C306.307 296.569 306.125 296.884 306.206 297.189C306.287 297.495 306.601 297.677 306.907 297.594C309.636 296.857 310.82 294.807 310.39 291.656L310.372 291.517C310.066 289.002 310.927 287.559 313.017 286.988L313.032 286.985C315.762 286.248 316.945 284.198 316.515 281.046L316.497 280.908C316.191 278.389 317.054 276.945 319.151 276.377L319.158 276.375C321.887 275.638 323.07 273.589 322.64 270.437L322.623 270.298C322.316 267.777 323.182 266.333 325.283 265.765C325.589 265.683 325.771 265.368 325.689 265.062C325.608 264.756 325.294 264.575 324.989 264.658C322.259 265.395 321.076 267.444 321.506 270.596L321.524 270.734C321.83 273.253 320.966 274.697 318.869 275.265L318.863 275.267C316.134 276.004 314.95 278.054 315.38 281.205L315.398 281.344C315.704 283.859 314.843 285.303 312.752 285.873L312.738 285.877ZM318.062 296.9C317.632 293.748 318.816 291.699 321.545 290.962L321.56 290.958C323.651 290.387 324.511 288.944 324.206 286.429L324.188 286.29C323.758 283.139 324.941 281.089 327.67 280.352L327.678 280.35C329.774 279.781 330.637 278.337 330.331 275.819L330.313 275.681C329.883 272.529 331.067 270.48 333.796 269.743C334.102 269.66 334.415 269.841 334.497 270.147C334.578 270.453 334.396 270.768 334.091 270.85C331.989 271.418 331.123 272.862 331.43 275.383L331.448 275.522C331.878 278.673 330.695 280.723 327.965 281.46L327.957 281.462C325.861 282.031 324.998 283.475 325.304 285.993L325.322 286.131C325.752 289.283 324.569 291.333 321.84 292.07L321.824 292.073C319.734 292.644 318.873 294.087 319.179 296.602L319.197 296.741C319.627 299.892 318.444 301.942 315.714 302.679C315.408 302.761 315.095 302.58 315.013 302.274C314.932 301.969 315.114 301.654 315.42 301.571C317.521 301.004 318.387 299.559 318.08 297.038L318.062 296.9ZM330.352 296.046C327.623 296.783 326.44 298.833 326.87 301.985L326.887 302.123C327.194 304.644 326.328 306.089 324.227 306.656C323.921 306.739 323.74 307.054 323.821 307.359C323.902 307.665 324.216 307.846 324.521 307.764C327.251 307.027 328.434 304.977 328.004 301.826L327.986 301.687C327.681 299.172 328.541 297.729 330.632 297.158L330.647 297.155C333.376 296.418 334.56 294.368 334.13 291.216L334.112 291.078C333.805 288.557 334.671 287.112 336.772 286.545C336.778 286.543 336.783 286.542 336.788 286.54C339.506 285.8 340.684 283.752 340.255 280.606L340.237 280.468C339.931 277.947 340.796 276.503 342.898 275.935C343.203 275.853 343.385 275.538 343.304 275.232C343.222 274.926 342.909 274.745 342.603 274.827C339.874 275.564 338.69 277.614 339.12 280.766L339.138 280.904C339.445 283.425 338.579 284.869 336.478 285.437C336.472 285.438 336.467 285.44 336.462 285.441C333.744 286.182 332.566 288.23 332.995 291.375L333.013 291.514C333.319 294.029 332.458 295.472 330.368 296.043L330.352 296.046Z" fill="white"></path></g><path fill-rule="evenodd" clip-rule="evenodd" d="M138.545 681.212C138.545 687.563 133.396 692.712 127.045 692.712H61V692.712C61 682.649 69.1579 674.491 79.221 674.491H96.0922C97.8614 674.491 99.4243 673.339 99.9474 671.649L107.84 646.149C109.331 641.333 113.784 638.049 118.826 638.049H127.045C133.396 638.049 138.545 643.198 138.545 649.549V681.212Z" fill="#78C6E7"></path><path fill-rule="evenodd" clip-rule="evenodd" d="M64.1 682.542C62.1426 685.447 61 688.946 61 692.712H127.045C132.947 692.712 137.81 688.267 138.469 682.542H64.1Z" fill="#151A21"></path><mask id="mask1_201_15272" style="mask-type:luminance" maskUnits="userSpaceOnUse" x="61" y="682" width="78" height="11"><path fill-rule="evenodd" clip-rule="evenodd" d="M64.1 682.542C62.1426 685.447 61 688.946 61 692.712H127.045C132.947 692.712 137.81 688.267 138.469 682.542H64.1Z" fill="white"></path></mask><g mask="url(#mask1_201_15272)">
</g><path d="M116.934 645.092C116.934 642.607 118.949 640.592 121.434 640.592H131.094C131.699 640.592 132.189 641.082 132.189 641.687V650.762C132.189 659.187 125.359 666.016 116.934 666.016V666.016V645.092Z" fill="#548BA3"></path><path fill-rule="evenodd" clip-rule="evenodd" d="M485.644 505.334C491.144 502.159 498.177 504.043 501.353 509.544L534.376 566.741V566.741C525.661 571.772 514.517 568.786 509.485 560.071L501.05 545.46C500.165 543.928 498.386 543.151 496.661 543.543L470.631 549.458C465.715 550.575 460.644 548.36 458.123 543.993L454.014 536.875C450.838 531.375 452.722 524.342 458.223 521.166L485.644 505.334Z" fill="#78C6E7"></path><path fill-rule="evenodd" clip-rule="evenodd" d="M524.018 569.141C527.512 569.384 531.114 568.623 534.376 566.74L501.353 509.544C498.402 504.433 492.121 502.444 486.834 504.735L524.018 569.141ZM485.686 505.31C485.672 505.318 485.658 505.326 485.644 505.334L458.223 521.166C458.209 521.174 458.195 521.182 458.181 521.19L485.686 505.31Z" fill="#151A21"></path><mask id="mask2_201_15272" style="mask-type:luminance" maskUnits="userSpaceOnUse" x="458" y="503" width="77" height="67"><path fill-rule="evenodd" clip-rule="evenodd" d="M524.018 569.141C527.512 569.384 531.114 568.623 534.376 566.74L501.353 509.544C498.402 504.433 492.121 502.444 486.834 504.735L524.018 569.141ZM485.686 505.31C485.672 505.318 485.658 505.326 485.644 505.334L458.223 521.166C458.209 521.174 458.195 521.182 458.181 521.19L485.686 505.31Z" fill="white"></path></mask><g mask="url(#mask2_201_15272)">
</g><path d="M465.168 542.11C463.016 543.353 460.263 542.616 459.021 540.463L454.191 532.097C453.888 531.574 454.068 530.904 454.592 530.602L462.451 526.064C469.747 521.852 479.077 524.352 483.289 531.648V531.648L465.168 542.11Z" fill="#548BA3"></path><path fill-rule="evenodd" clip-rule="evenodd" d="M224.989 543.978H261.26C305.638 616.357 374.928 631.723 452.01 587.22C470.251 576.688 476.5 553.364 465.969 535.124C455.438 516.883 432.114 510.633 413.873 521.164C391.22 534.243 373.775 538.078 360.814 534.946C351.432 532.679 337.043 522.88 327.959 510.926C327.959 510.926 293.635 513.468 260.583 490.586C227.531 467.704 198.87 468.932 187.194 471.337C122.404 484.679 86.4246 534.254 86.4246 611.353C86.4246 632.416 103.499 649.49 124.562 649.49C145.624 649.49 162.698 632.416 162.698 611.353C162.698 585.196 168.1 568.17 177.293 558.512C186.094 549.266 201.192 543.978 224.989 543.978Z" fill="url(#paint4_linear_201_15272)"></path><mask id="mask3_201_15272" style="mask-type:luminance" maskUnits="userSpaceOnUse" x="86" y="470" width="386" height="180"><path fill-rule="evenodd" clip-rule="evenodd" d="M224.989 543.978H261.26C305.638 616.357 374.928 631.723 452.01 587.22C470.251 576.688 476.5 553.364 465.969 535.124C455.438 516.883 432.114 510.633 413.873 521.164C391.22 534.243 373.775 538.078 360.814 534.946C351.432 532.679 337.043 522.88 327.959 510.926C327.959 510.926 293.635 513.468 260.583 490.586C227.531 467.704 198.87 468.932 187.194 471.337C122.404 484.679 86.4246 534.254 86.4246 611.353C86.4246 632.416 103.499 649.49 124.562 649.49C145.624 649.49 162.698 632.416 162.698 611.353C162.698 585.196 168.1 568.17 177.293 558.512C186.094 549.266 201.192 543.978 224.989 543.978Z" fill="white"></path></mask><g mask="url(#mask3_201_15272)"><path d="M251.685 546.52H278.381" stroke="#AE3B1B" stroke-width="4" stroke-linecap="round"></path></g><defs><linearGradient id="paint0_linear_201_15272" x1="322.465" y1="126.678" x2="331.959" y2="151.124" gradientUnits="userSpaceOnUse"><stop stop-color="#AE3B1B" stop-opacity="0.01"></stop><stop offset="1" stop-color="#AE3B1B"></stop></linearGradient><linearGradient id="paint1_linear_201_15272" x1="439.348" y1="197.296" x2="448.842" y2="221.743" gradientUnits="userSpaceOnUse"><stop stop-color="#AE3B1B" stop-opacity="0.01"></stop><stop offset="1" stop-color="#AE3B1B"></stop></linearGradient><linearGradient id="paint2_linear_201_15272" x1="53.3383" y1="235.387" x2="550.517" y2="257.721" gradientUnits="userSpaceOnUse"><stop stop-color="#9ADBED"></stop><stop offset="0.511824" stop-color="#EBDDF5"></stop><stop offset="1" stop-color="#ECBACB"></stop></linearGradient><linearGradient id="paint3_linear_201_15272" x1="326.029" y1="288.761" x2="330.967" y2="285.05" gradientUnits="userSpaceOnUse"><stop stop-color="#44484D" stop-opacity="0.01"></stop><stop offset="1" stop-color="#44484D"></stop></linearGradient><linearGradient id="paint4_linear_201_15272" x1="278.755" y1="739.187" x2="416.19" y2="444.495" gradientUnits="userSpaceOnUse"><stop stop-color="#FA5B35"></stop><stop offset="0.504253" stop-color="#FA5B35"></stop><stop offset="1" stop-color="#FC9D86"></stop></linearGradient></defs></svg>